<?xml version="1.0" encoding="utf-8"?>
<!-- Generator: Adobe Illustrator 21.1.0, SVG Export Plug-In . SVG Version: 6.00 Build 0)  -->
<svg version="1.1" id="Layer_1" xmlns="http://www.w3.org/2000/svg" xmlns:xlink="http://www.w3.org/1999/xlink" x="0px" y="0px"
	 viewBox="0 0 905 905" style="enable-background:new 0 0 905 905;" xml:space="preserve">
<style type="text/css">
	.st0{fill:#002663;stroke:#D5A10F;stroke-width:10;stroke-miterlimit:10;}
	.st1{fill:#D5A10F;stroke:#064080;stroke-miterlimit:10;}
</style>
<g>
	<path class="st0" d="M443.1,184.1c45.7-1.9,91.9,7.8,132.8,28.3c32.7,16.2,62,39.2,85.8,66.9c26.6,31,46.2,67.9,56.6,107.4
		c11.7,43.7,12.1,90.4,1.4,134.3c-9.9,41-29.7,79.5-57,111.7c-22.8,26.7-50.6,49.2-81.6,65.5c-77.2,41-174.4,40.9-251.8,0.5
		c-36-18.7-67.7-45.6-92.2-77.9c-21.4-28.1-37.2-60.5-46.2-94.6c-17.5-65.6-9.3-137.6,22.9-197.4c28.1-53,74.2-96.3,129-120.9
		C374.3,193.7,408.6,185.6,443.1,184.1z"/>
	<path class="st1" d="M453.2,213c1.3-0.3,2.1,1.1,3,1.8c13.3,14.6,25.5,30.2,36.5,46.6c11.3,16.8,21.1,34.6,28.3,53.6
		c7,18.7,10.9,38.9,9.2,58.9c-1.1,13.9-6.4,27.4-14.7,38.6c-12,16.5-28.5,29.8-37.7,48.3c-10.4,21.3-11.9,46.2-7.1,69.2
		c4.7-0.3,9.4-0.9,14.1-1.7c-3.9-20-4-41.2,3-60.5C493,453.3,503.1,440,517,433c15.1-7.7,32.8-8.1,49.1-4.6
		c16.3,3.3,31.3,12.9,40.7,26.6c12.9,18.5,17.7,41.5,17.7,63.7c-10.1-15.1-24-28.1-40.9-35.1c-14.9-6.3-32.3-6.4-47.3-0.3
		c-17.2,7.6-32.3,22.5-36.4,41.3c5.4-2.3,11.2-5,14.4-10.3c1.9-2.8,2-6.2,2.3-9.4c1.9,9.6,2.5,20-1.7,29.1c-2.4,6-6.9,10.9-12,14.8
		c5.1,11.8,15.5,20.4,26,27.3c20.1,12.3,42.8,19.4,65.7,24.7c-5.6,21.8-11.2,43.6-17.3,65.3c-11.3-10.9-21.1-23.2-31.3-35
		c-8.2-9.8-16.4-19.6-24.5-29.5c-12.2-13.9-21.9-29.9-29-46.9c-4,1.7-8.1,2.9-12.3,3.8c7.2,16.7,18.7,30.8,28.1,46.2
		c9.7,15.1,19,30.5,27.4,46.3c2.1,4.6,5.1,9.2,4.6,14.4c-5.3,1.6-10.8-0.2-15.9-1.6c-7.2-2.1-14.3-4.5-21.6-6.1
		c-2.8-0.7-5.7-0.6-8.6-0.2c-7.7,10.7-15.9,21.6-27.3,28.5c-7.8,5-18,5.5-26.2,1.2c-12.2-6.2-20.6-17.6-28.6-28.3
		c-1.4-2.4-4.6-1.8-7-1.6c-11.3,1.9-21.8,7.4-33.2,8.8c-1.8-0.1-4.4,0.2-5.1-2c-0.1-3.9,2.1-7.4,3.6-10.8c9.1-18,20-35,30.6-52.1
		c9-13.8,19.1-27,25.7-42.2c-4.1-0.7-8.1-1.9-12.2-3.1c-6.3,15.8-15.6,30.3-26.4,43.4c-13.4,16.3-26.9,32.4-40.6,48.4
		c-5.6,6.2-10.8,12.8-17,18.3c-6.1-21.7-11.6-43.5-17.3-65.3c18.9-4.2,37.5-10,54.9-18.5c9.5-5,18.9-10.7,26.4-18.5
		c3.9-3.8,7.4-8,9.5-13c-9-5.4-15.4-14.9-16.6-25.3c-1.1-6.7,0.1-13.3,1.1-19.9c0.3,3.3,0.4,6.9,2.5,9.7c4,5.8,10.8,8.7,17.3,10.9
		c-2.9-16.2-14.4-29.7-28.1-38.2c-13.3-8.4-29.9-10.9-45.2-7.5c-21.6,4.9-39.3,20.3-51.5,38.3c-0.3-20.8,4.2-42.1,15.2-59.9
		c8.5-14.1,22.5-24.8,38.4-29.1c16.2-4.4,34-4.7,49.7,1.6c14.5,5.9,25.6,18.3,31.6,32.5c8.8,20.6,8.7,43.8,4.6,65.4
		c4.5,0.5,9,0.9,13.5,1.2c4.6-21.6,3.5-44.7-5-65.2c-6.5-15-17.7-27.1-28.6-39.1c-10.9-12-20.8-25.7-24.2-41.9
		c-5-23.3-0.4-47.6,7.8-69.7c14-36,36.8-67.9,62.1-96.9C450.1,215.9,451.5,214.3,453.2,213z"/>
	<path class="st1" d="M602.8,306.3c4.7,12.7,10.1,25,14.9,37.6c12.4,0.2,24.7-0.1,37.1,0.4c-9.2,8.2-18,16.9-27.1,25.3
		c2.5,11.8,4.9,23.7,7.2,35.5c-9.8-6.8-19.3-13.9-28.8-21c-11.7,7.1-23.4,14.2-35.2,21.1c3.9-13.1,8.5-25.9,12.3-39.1
		c-10.7-7.3-21.5-14.4-32.1-21.8c13.5-0.5,27-0.2,40.5-0.4C595.1,331.4,598.9,318.8,602.8,306.3z"/>
	<path class="st1" d="M286.9,347.4c3.5-12.6,7.5-25,11.1-37.6c5,12.6,10,25.1,15,37.7c12.3,0.2,24.6-0.4,36.9,0.4
		c-9,8.3-17.8,16.8-26.9,25c2.3,11.9,4.8,23.9,7.2,35.8c-9.8-6.9-19.3-14.3-29-21.1c-10.9,6.6-21.8,13.2-32.7,19.8
		c-1.2,0.6-2,1.4-2.5,2.6c3.4-13.6,8.5-26.7,12.4-40.2c-10.7-7.5-21.6-14.6-32.4-22C259.7,347.3,273.3,347.6,286.9,347.4z"/>
</g>
</svg>
