<?xml version="1.0" encoding="utf-8"?>
<!-- Generator: Adobe Illustrator 21.1.0, SVG Export Plug-In . SVG Version: 6.00 Build 0)  -->
<svg version="1.1" id="Layer_1" xmlns="http://www.w3.org/2000/svg" xmlns:xlink="http://www.w3.org/1999/xlink" x="0px" y="0px"
	 viewBox="0 0 244.1 98.5" style="enable-background:new 0 0 244.1 98.5;" xml:space="preserve">
<style type="text/css">
	.st0{fill:none;stroke:#001F5B;stroke-miterlimit:10;}
	.st1{opacity:0.4;fill:#6D6E71;}
	.st2{fill-rule:evenodd;clip-rule:evenodd;fill:#001F5B;}
	.st3{fill:#001F5B;}
	.st4{fill:#957283;}
	.st5{fill-rule:evenodd;clip-rule:evenodd;fill:#957283;}
	.st6{fill-rule:evenodd;clip-rule:evenodd;fill:#9A9A9A;}
	.st7{fill:url(#SVGID_1_);}
	.st8{fill:#FFFFFF;}
	.st9{fill:none;stroke:#FFFFFF;stroke-width:0.7027;stroke-miterlimit:10;}
	.st10{fill:none;stroke:#001F5B;stroke-width:0.6956;}
	.st11{fill:#001F5B;stroke:#001F5B;stroke-width:0.3333;}
	.st12{fill:none;stroke:#001F5B;}
	.st13{opacity:0.5;fill:#957283;}
</style>
<rect x="6" y="5.8" class="st0" width="232.3" height="87.5"/>
<g>
	<polygon class="st1" points="96.9,66.7 95.2,65.3 95.1,65.3 96.9,66.8 	"/>
	<path class="st2" d="M147,73c0,0.2,0.2,0.4,0.5,0.4c0.3,0,0.5-0.2,0.5-0.4c0-0.2-0.2-0.4-0.5-0.4C147.3,72.6,147,72.8,147,73
		L147,73z M147,74.9c0,0.2,0.2,0.4,0.5,0.4c0.3,0,0.5-0.2,0.5-0.4c0-0.2-0.2-0.4-0.5-0.4C147.3,74.5,147,74.7,147,74.9L147,74.9z
		 M147,76.7c0,0.2,0.2,0.4,0.5,0.4c0.3,0,0.5-0.2,0.5-0.4c0-0.2-0.2-0.4-0.5-0.4C147.3,76.3,147,76.5,147,76.7L147,76.7z M147,78.6
		c0,0.2,0.2,0.4,0.5,0.4c0.3,0,0.5-0.2,0.5-0.4c0-0.2-0.2-0.4-0.5-0.4C147.3,78.2,147,78.3,147,78.6L147,78.6z M147,80.4
		c0,0.2,0.2,0.4,0.5,0.4c0.3,0,0.5-0.2,0.5-0.4s-0.2-0.4-0.5-0.4C147.3,80,147,80.2,147,80.4L147,80.4z M147,82.2
		c0,0.2,0.2,0.4,0.5,0.4c0.3,0,0.5-0.2,0.5-0.4c0-0.2-0.2-0.4-0.5-0.4C147.3,81.8,147,82,147,82.2L147,82.2z M147,84.1
		c0,0.2,0.2,0.4,0.5,0.4c0.3,0,0.5-0.2,0.5-0.4c0-0.2-0.2-0.4-0.5-0.4C147.3,83.7,147,83.9,147,84.1L147,84.1z M147,49.1
		c0,0.2,0.2,0.4,0.5,0.4c0.3,0,0.5-0.2,0.5-0.4c0-0.2-0.2-0.4-0.5-0.4C147.3,48.7,147,48.9,147,49.1L147,49.1z M147,50.9
		c0,0.2,0.2,0.4,0.5,0.4c0.3,0,0.5-0.2,0.5-0.4c0-0.2-0.2-0.4-0.5-0.4C147.3,50.5,147,50.7,147,50.9L147,50.9z M147,52.8
		c0,0.2,0.2,0.4,0.5,0.4c0.3,0,0.5-0.2,0.5-0.4c0-0.2-0.2-0.4-0.5-0.4C147.3,52.4,147,52.6,147,52.8L147,52.8z M147,54.6
		c0,0.2,0.2,0.4,0.5,0.4c0.3,0,0.5-0.2,0.5-0.4c0-0.2-0.2-0.4-0.5-0.4C147.3,54.2,147,54.4,147,54.6L147,54.6z M147,56.5
		c0,0.2,0.2,0.4,0.5,0.4c0.3,0,0.5-0.2,0.5-0.4c0-0.2-0.2-0.4-0.5-0.4C147.3,56.1,147,56.2,147,56.5L147,56.5z M147,58.3
		c0,0.2,0.2,0.4,0.5,0.4c0.3,0,0.5-0.2,0.5-0.4c0-0.2-0.2-0.4-0.5-0.4C147.3,57.9,147,58.1,147,58.3L147,58.3z M147,60.1
		c0,0.2,0.2,0.4,0.5,0.4c0.3,0,0.5-0.2,0.5-0.4c0-0.2-0.2-0.4-0.5-0.4C147.3,59.7,147,59.9,147,60.1L147,60.1z M147,62
		c0,0.2,0.2,0.4,0.5,0.4c0.3,0,0.5-0.2,0.5-0.4c0-0.2-0.2-0.4-0.5-0.4C147.3,61.6,147,61.8,147,62L147,62z M147,63.8
		c0,0.2,0.2,0.4,0.5,0.4c0.3,0,0.5-0.2,0.5-0.4c0-0.2-0.2-0.4-0.5-0.4C147.3,63.4,147,63.6,147,63.8L147,63.8z M147,65.7
		c0,0.2,0.2,0.4,0.5,0.4c0.3,0,0.5-0.2,0.5-0.4c0-0.2-0.2-0.4-0.5-0.4C147.3,65.3,147,65.4,147,65.7L147,65.7z M147,67.5
		c0,0.2,0.2,0.4,0.5,0.4c0.3,0,0.5-0.2,0.5-0.4c0-0.2-0.2-0.4-0.5-0.4C147.3,67.1,147,67.3,147,67.5L147,67.5z M147,69.4
		c0,0.2,0.2,0.4,0.5,0.4c0.3,0,0.5-0.2,0.5-0.4c0-0.2-0.2-0.4-0.5-0.4C147.3,68.9,147,69.1,147,69.4L147,69.4z M147,71.2
		c0,0.2,0.2,0.4,0.5,0.4c0.3,0,0.5-0.2,0.5-0.4c0-0.2-0.2-0.4-0.5-0.4C147.3,70.8,147,71,147,71.2L147,71.2z"/>
	<g>
		<path class="st3" d="M99.7,60.1h10.9v4.1H95.1V42.1h4.6V60.1z"/>
		<path class="st3" d="M119,47.4c1.3,0,2.5,0.2,3.5,0.6c1,0.4,1.9,1,2.6,1.7c0.7,0.8,1.3,1.7,1.6,2.7c0.4,1.1,0.6,2.2,0.6,3.5
			c0,1.3-0.2,2.5-0.6,3.5c-0.4,1.1-1,2-1.7,2.7c-0.7,0.8-1.6,1.3-2.6,1.7c-1,0.4-2.2,0.6-3.4,0.6c-1.3,0-2.5-0.2-3.5-0.6
			c-1-0.4-1.9-1-2.6-1.8c-0.7-0.8-1.3-1.7-1.6-2.7c-0.4-1.1-0.6-2.2-0.6-3.5c0-1.3,0.2-2.5,0.6-3.5c0.4-1.1,1-2,1.7-2.7
			c0.7-0.8,1.6-1.3,2.6-1.8C116.5,47.6,117.7,47.4,119,47.4z M119,51c-2.6,0-3.9,1.6-3.9,4.9c0,3.3,1.3,5,3.9,5c2.6,0,3.9-1.7,3.9-5
			C122.9,52.7,121.6,51,119,51z"/>
		<path class="st3" d="M143.4,64.1h-4.1v-2.3c-1.1,1.8-2.8,2.7-5.1,2.7c-0.8,0-1.6-0.1-2.2-0.4c-0.7-0.3-1.3-0.7-1.8-1.2
			c-0.5-0.5-0.9-1.2-1.1-1.9c-0.3-0.7-0.4-1.5-0.4-2.5V47.8h4.3v10.1c0,2,0.9,3,2.8,3c1.1,0,1.9-0.3,2.5-1c0.6-0.7,0.9-1.6,0.9-2.7
			v-9.4h4.3V64.1z"/>
		<path class="st3" d="M154.9,57.1c0.1,1.2,0.4,2.2,1.1,2.9c0.6,0.7,1.5,1.1,2.6,1.1c0.7,0,1.3-0.2,1.9-0.5c0.5-0.3,0.9-0.8,1.1-1.3
			h4.4c-0.5,1.7-1.4,3-2.7,3.9c-1.3,0.9-2.8,1.4-4.5,1.4c-5.5,0-8.2-3-8.2-8.9c0-2.5,0.7-4.6,2-6.1c1.4-1.5,3.3-2.3,5.8-2.3
			c5.1,0,7.7,3.3,7.7,9.8H154.9z M161.8,54.4c0-1.2-0.4-2.1-1.1-2.7c-0.7-0.6-1.4-0.9-2.3-0.9c-0.9,0-1.6,0.3-2.3,0.9
			c-0.6,0.6-1,1.5-1.1,2.7H161.8z"/>
		<path class="st4" d="M172.1,60.1H183v4.1h-15.6V42.1h4.6V60.1z"/>
		<path class="st4" d="M191.3,47.4c2.3,0,4.1,0.6,5.2,1.6c1.2,1.1,1.7,2.7,1.7,4.8v10.3h-4c0-0.2-0.1-0.4-0.1-0.6
			c0-0.2-0.1-0.5-0.1-0.7c-0.5,0.6-1.2,1-2,1.2c-0.8,0.3-1.8,0.4-2.9,0.4c-1.6,0-3-0.4-4-1.2c-1-0.8-1.5-1.9-1.5-3.4
			c0-1.1,0.2-2,0.6-2.7c0.4-0.7,0.9-1.2,1.6-1.6c0.7-0.4,1.5-0.7,2.4-0.9c0.9-0.2,1.9-0.4,3-0.5c0.9-0.1,1.5-0.3,2-0.6
			c0.5-0.3,0.7-0.6,0.7-1.1c0-0.6-0.3-1.1-0.9-1.4c-0.6-0.3-1.2-0.5-1.9-0.5c-0.8,0-1.4,0.2-1.9,0.7c-0.5,0.4-0.8,1-0.9,1.8h-4.1
			c0.1-1.8,0.8-3.2,1.9-4.2C187.1,47.9,188.8,47.4,191.3,47.4z M193.9,56.1c-0.4,0.4-1.2,0.6-2.3,0.9c-1.5,0.3-2.5,0.6-3,1
			c-0.5,0.4-0.8,0.9-0.8,1.6c0,1.2,0.6,1.8,1.9,1.8c0.5,0,1.1-0.1,1.6-0.2c0.5-0.2,1-0.4,1.3-0.7c0.4-0.3,0.7-0.7,0.9-1.2
			c0.2-0.5,0.3-1,0.3-1.6c0-0.2,0-0.5,0-0.8C194,56.6,194,56.3,193.9,56.1z"/>
		<path class="st4" d="M204.3,49.9L204.3,49.9c1.2-1.7,2.8-2.6,4.8-2.6h0c1,0,2,0.2,2.8,0.6c0.8,0.4,1.5,1,2.1,1.7
			c0.6,0.7,1,1.6,1.3,2.7c0.3,1,0.5,2.2,0.5,3.4c0,1.4-0.2,2.6-0.5,3.7c-0.4,1.1-0.8,2-1.5,2.8c-0.6,0.8-1.4,1.3-2.2,1.7
			c-0.9,0.4-1.8,0.6-2.8,0.6c-2,0-3.5-0.8-4.5-2.5l0,2H200V41.8h4.3V49.9z M207.7,51.1c-2.4,0-3.6,1.8-3.6,5.3c0,1.4,0.3,2.5,1,3.4
			c0.7,0.9,1.6,1.3,2.6,1.3c1.1,0,2-0.5,2.6-1.4c0.7-0.9,1-2.1,1-3.6C211.4,52.7,210.2,51.1,207.7,51.1z"/>
	</g>
	<g>
		<path class="st5" d="M144,36.4c2.1,0,4.2,0,6.3,0c0.3,0,0.6,0.3,0.6,0.6l0,0c0,0.3-0.3,0.6-0.6,0.6c-2.1,0-4.2,0-6.3,0
			c-0.3,0-0.6-0.3-0.6-0.6l0,0C143.5,36.7,143.7,36.4,144,36.4L144,36.4z"/>
		<path class="st6" d="M144,34.6h6.3c0.3,0,0.6,0.3,0.6,0.6h-7.4C143.5,34.8,143.7,34.6,144,34.6L144,34.6z"/>
		<g>
			<path class="st4" d="M145.6,40.9c0,0.3,0.4,0.6,0.9,0.6h1.4c0.5,0,0.9-0.2,0.9-0.6v-0.6h-3.1V40.9z"/>
			<path class="st5" d="M143.5,38.9c0,0.3,0.3,0.6,0.6,0.6h1.6v-0.6H143.5z"/>
			<path class="st5" d="M148.7,39.5h1.6c0.3,0,0.6-0.3,0.6-0.6h-2.2V39.5z"/>
			<rect x="145.6" y="38.9" class="st5" width="3.1" height="0.6"/>
			<path class="st5" d="M145.6,38.9v-0.5h3.1v0.5h2.2c0-0.3-0.3-0.6-0.6-0.6H144c-0.3,0-0.6,0.3-0.6,0.6H145.6z"/>
			<polyline class="st5" points="148.7,38.9 148.7,38.4 145.6,38.4 145.6,38.9 			"/>
		</g>
		<path class="st5" d="M144,34.6c2.1,0,4.2,0,6.3,0c0.3,0,0.6,0.3,0.6,0.6l0,0c0,0.3-0.3,0.6-0.6,0.6c-2.1,0-4.2,0-6.3,0
			c-0.3,0-0.6-0.3-0.6-0.6l0,0C143.5,34.8,143.7,34.6,144,34.6L144,34.6z"/>
	</g>
	<g>
		<path class="st4" d="M150.1,17c0-0.4,0.1-0.8,0.2-1.2c-1-0.5-2-0.7-3.2-0.7c-4.2,0-7.5,3.6-7.5,7.9c0,1.5,0.4,3,1.2,4.3
			c0.2,0.4,0.5,0.7,0.7,1.1c1.3,2.1,1.8,2.8,1.8,4.2c0,0.2,0,0.5,0.1,0.7c0,0.3,0.3,0.5,0.5,0.5h6.5c0.3,0,0.5-0.2,0.5-0.5
			c0-0.2,0.1-0.5,0.1-0.7c0-1.4,0.5-2.2,1.8-4.2c0.2-0.3,0.4-0.7,0.7-1.1c0.8-1.3,1.2-2.7,1.2-4.3c0-1.1-0.2-2.1-0.6-3.1
			c-0.3,0.1-0.6,0.1-0.9,0.1C151.5,20.1,150.1,18.7,150.1,17z"/>
		<radialGradient id="SVGID_1_" cx="147.0166" cy="19.069" r="38.8394" gradientUnits="userSpaceOnUse">
			<stop  offset="0.2723" style="stop-color:#2C3B7F"/>
			<stop  offset="0.4501" style="stop-color:#6B396C;stop-opacity:0.8289"/>
			<stop  offset="0.7213" style="stop-color:#AF324E;stop-opacity:0.5681"/>
			<stop  offset="0.9106" style="stop-color:#D92836;stop-opacity:0.386"/>
			<stop  offset="1" style="stop-color:#EA242B;stop-opacity:0.3"/>
		</radialGradient>
		<path class="st7" d="M156.3,17c0-1.7-1.4-3.1-3.1-3.1c-1.3,0-2.4,0.8-2.9,1.9c1.7,0.8,3.1,2.3,3.8,4.1
			C155.4,19.6,156.3,18.4,156.3,17z"/>
	</g>
	<circle class="st8" cx="152.7" cy="26.3" r="1.7"/>
	<circle class="st9" cx="147.2" cy="21.1" r="2.4"/>
	<circle class="st3" cx="147.4" cy="44.8" r="2"/>
	<g>
		<circle class="st10" cx="49.5" cy="53.4" r="22"/>
		<g>
			<g>
				<polygon class="st3" points="40.9,49.3 39.3,48.2 41.3,48.2 41.9,46.4 42.6,48.2 44.4,48.2 43.1,49.5 43.4,51.2 42,50.2 
					40.3,51.2 				"/>
			</g>
		</g>
		<g>
			<g>
				<polygon class="st3" points="55.9,49.1 54.3,48.1 56.3,48.1 56.9,46.2 57.6,48.1 59.4,48.1 58.1,49.3 58.4,51.1 57,50 
					55.3,51.1 				"/>
			</g>
		</g>
		<g>
			<path class="st11" d="M30.6,46.3l4.3,1.7l0.7-1.9l0.3,0.1L34.8,49l-4.6-1.8L30.6,46.3z"/>
			<path class="st11" d="M34,44.5c-1.8-1.4-1.2-2.6-0.7-3.2c0.5-0.7,1.5-1.6,3.3-0.2c1.8,1.4,1.2,2.6,0.7,3.2
				C36.8,45,35.8,45.9,34,44.5z M36,41.8c-1.5-1.2-2.2-0.8-2.5-0.4c-0.3,0.4-0.5,1.1,1.1,2.3c1.6,1.2,2.2,0.8,2.5,0.4
				C37.4,43.7,37.5,43,36,41.8z"/>
			<path class="st11" d="M36.4,37.9l0.8-0.5l2.3,3.3c0.3,0.4,0.8,0.2,1,0c0.3-0.2,0.6-0.6,0.3-1l-2.3-3.3l0.8-0.5l2.3,3.2
				c0.5,0.6-0.1,1.4-0.9,1.9c-0.8,0.5-1.6,0.8-2.1,0.2L36.4,37.9z"/>
			<path class="st11" d="M42.9,34.3l1.7,4.6l-0.9,0.3L42,34.6L42.9,34.3z"/>
			<path class="st11" d="M47.4,33.6c-0.5,0.1-1,0.3-1,0.6c0,0.4,0.6,0.7,1.3,1.1c1,0.5,1.7,0.9,1.8,1.6c0.1,0.9-1.4,1.3-2.3,1.4
				c-0.5,0.1-1,0.1-1.3,0l0.3-0.3c0.3,0,0.6,0,1,0c0.5-0.1,1.4-0.4,1.3-1c-0.1-0.5-0.8-1-1.5-1.3c-1.1-0.5-1.5-0.8-1.6-1.4
				c-0.1-0.5,0.7-0.9,1.9-1c0.6-0.1,1.1,0,1.1,0l-0.3,0.3C47.9,33.5,47.7,33.5,47.4,33.6z"/>
			<path class="st11" d="M53.7,33.6l0.8,0.1L52,38.4l-0.5-0.1l-1.1-5.2l0.9,0.1l0.7,3.5L53.7,33.6z"/>
			<path class="st11" d="M57.7,35l-1.9,4.6l-0.9-0.4l1.9-4.6L57.7,35z"/>
			<path class="st11" d="M61.2,37l-2.7,3.8l1.7,1.2L60,42.2l-2.4-1.8l2.9-4L61.2,37z"/>
			<path class="st11" d="M65.1,40.5l-3.6,2.9l1.3,1.6l-0.2,0.2l-1.9-2.3l3.8-3.1L65.1,40.5z"/>
			<path class="st11" d="M67.8,45.5l-2.4,1l0.6,1.5l-0.3,0.1l-0.6-1.5l-1.3,0.6l0.8,1.9l-0.3,0.1l-1.2-2.8l1.6-0.7l-0.1-0.4l0.3-0.1
				l0.1,0.4l2.7-1.1l1.2,2.8l-0.3,0.1L67.8,45.5z"/>
		</g>
		<path class="st3" d="M43.4,63.9c0,0-0.2,0.4,2.9-3.4c2.8-3.4,2.2-8.4-1.4-8.4c-4,0-3.9,4.5-3.9,4.5c0,0,1.5-2.5,4-1.9
			c2.1,0.5,4.6,4.3-2.5,5.9L43.4,63.9z"/>
		<path class="st3" d="M55.6,63.9c0,0,0.2,0.4-2.9-3.4c-2.8-3.4-2.2-8.4,1.4-8.4c4,0,3.9,4.5,3.9,4.5c0,0-1.5-2.5-4-1.9
			c-2.1,0.5-4.6,4.3,2.5,5.9L55.6,63.9z"/>
		<path class="st3" d="M49.5,41.6c0,0,3.1,3.2,3.7,6.4c0.7,3.8-2,4-2.8,6.5c-0.5,1.7-0.2,3.6,1.2,5.6c0.3,0.4,2.2,3.4,2.1,3.8
			c-0.1,0.4-2.1-0.6-2.3-0.3c-1.5,2.1-2.5,2.1-4,0c-0.2-0.3-2.1,0.7-2.2,0.3c-0.1-0.3,1.8-3.3,2.1-3.8c1.4-2,1.7-3.9,1.2-5.6
			c-0.7-2.5-3.4-2.7-2.8-6.5C46.4,44.8,49.5,41.6,49.5,41.6z"/>
		<path class="st3" d="M52.6,56c0,0,0.4,1.3-3.2,1.3c-3.6,0-3.1-1.3-3.1-1.3s-1,2.7,3.1,2.7S52.6,56,52.6,56z"/>
		<g>
			<path class="st3" d="M31,54.8l2.4-0.3l0,0.4l-2,0.2l0,0.1l-0.4,0L31,54.8z"/>
			<path class="st3" d="M31.3,53.8l0,0.5l-0.4,0l0-1l2.4,0.2l0,0.5L31.3,53.8z"/>
			<path class="st3" d="M31.3,52.3l0,0.5l-0.4,0l0-1l2.4,0.4l0,0.5L31.3,52.3z"/>
			<path class="st3" d="M32.1,50.4c0.1-0.1,0.3-0.2,0.6-0.2c0.5,0.1,0.7,0.4,0.7,0.7c0,0.3-0.3,0.5-0.8,0.5c-0.3,0-0.4-0.2-0.5-0.3
				c-0.1,0.1-0.2,0.2-0.5,0.1c-0.5-0.1-0.6-0.4-0.5-0.6c0-0.2,0.2-0.5,0.7-0.4C31.9,50.2,32.1,50.3,32.1,50.4z M31.9,50.7
				c0-0.1-0.1-0.1-0.2-0.1c-0.2,0-0.3,0-0.3,0.1c0,0.1,0.1,0.1,0.2,0.1C31.7,50.8,31.8,50.7,31.9,50.7z M33,50.9
				c0-0.1-0.1-0.1-0.3-0.2c-0.2,0-0.4,0-0.4,0.1c0,0.1,0.1,0.1,0.3,0.2C32.8,51,33,50.9,33,50.9z"/>
		</g>
		<g>
			<path class="st3" d="M67.9,50.6l-2.4,0.3l0-0.4l2-0.2l0-0.1l0.4,0L67.9,50.6z"/>
			<path class="st3" d="M67.6,51.7l0-0.5l0.4,0l0,1L65.6,52l0-0.5L67.6,51.7z"/>
			<path class="st3" d="M67.6,53.2l0-0.5l0.4,0l0,1l-2.4-0.4l0-0.5L67.6,53.2z"/>
			<path class="st3" d="M66.8,55.1c-0.1,0.1-0.3,0.2-0.6,0.2c-0.5-0.1-0.7-0.4-0.7-0.7c0-0.3,0.3-0.5,0.8-0.5c0.3,0,0.5,0.2,0.5,0.3
				c0.1-0.1,0.2-0.2,0.5-0.1c0.5,0.1,0.6,0.4,0.5,0.6c0,0.2-0.2,0.5-0.7,0.4C67,55.3,66.8,55.2,66.8,55.1z M67,54.8
				c0,0.1,0.1,0.1,0.2,0.1c0.2,0,0.3,0,0.3-0.1c0-0.1-0.1-0.1-0.2-0.1C67.1,54.7,67,54.7,67,54.8z M65.9,54.6c0,0.1,0.1,0.1,0.3,0.2
				c0.2,0,0.4,0,0.4-0.1c0-0.1-0.1-0.1-0.3-0.2C66,54.5,65.9,54.6,65.9,54.6z"/>
		</g>
		<g>
			<g>
				<path class="st3" d="M46.6,69.7c-0.4-0.1-0.7,0.2-0.8,0.5c-0.1,0.4,0.2,0.8,0.6,0.9c0.4,0.1,0.7-0.2,0.8-0.6
					C47.2,70.1,46.9,69.8,46.6,69.7z M41.5,67.8L41.5,67.8l-0.4,0.5l0.1,0c0.2,0.1,0.4,0.2,0.5-0.1C41.8,68,41.6,67.9,41.5,67.8z
					 M56.8,68.3c-0.3,0.2-0.5,0.6-0.3,0.9c0.2,0.4,0.6,0.5,1,0.4c0.3-0.2,0.5-0.6,0.3-1C57.6,68.3,57.1,68.1,56.8,68.3z M63.3,57.1
					c0.3-1.1,0.4-2.3,0.4-3.5c0-7.8-6.3-14.1-14.1-14.1c-7.8,0-14.1,6.3-14.1,14.1c0,1.2,0.2,2.4,0.4,3.5l-6.5,1.6
					c2.4,8.9,10.5,15.5,20.2,15.5c9.7,0,17.8-6.6,20.2-15.6L63.3,57.1z M49.6,40.2c7.4,0,13.5,6,13.5,13.5c0,5.8-3.7,10.7-8.8,12.6
					c0,0-0.1,0-0.1,0c-0.1,0-0.2,0.1-0.3,0.1c-1.4,0.5-2.8,0.7-4.3,0.7c-1.8,0-3.5-0.3-5-1c0,0,0,0,0,0c-0.1,0-0.2-0.1-0.4-0.2
					c-0.1-0.1-0.3-0.1-0.4-0.2c0,0,0,0,0,0c-4.5-2.2-7.6-6.8-7.6-12.1C36.1,46.2,42.2,40.2,49.6,40.2z M32.6,60.8
					c-0.1-0.3-0.1-0.5,0.1-0.7l0.5,0.2c-0.1,0.1-0.1,0.2-0.1,0.3c0.1,0.2,0.3,0.1,0.4,0l1.5-0.7l0.3,0.6l-1.5,0.7
					C33.3,61.4,32.9,61.3,32.6,60.8z M34.2,63.6l-0.7-1.2l2.1-1.3l0.7,1.2l-0.5,0.3l-0.4-0.7l-0.4,0.2l0.4,0.6L35,63l-0.4-0.6
					l-0.4,0.2l0.4,0.7L34.2,63.6z M35.1,64.9l-0.4-0.5l2-1.5l0.9,1.1l-0.4,0.3l-0.5-0.6l-0.3,0.3l0.4,0.6l-0.4,0.3l-0.4-0.6
					L35.1,64.9z M37.4,65.9l-0.7,0.7l-0.5-0.5l1.7-1.8l1,1l-0.4,0.4L38,65.2l-0.3,0.3l0.5,0.5l-0.4,0.4L37.4,65.9z M39.4,68.2
					L39,68.6l-1.1-0.9l1.5-2l1.1,0.9l-0.3,0.4l-0.6-0.5l-0.3,0.3l0.6,0.4l-0.3,0.4L39,67.4l-0.3,0.3L39.4,68.2z M41.5,68.9l0.2,1.3
					L41,69.8l-0.1-1.1l0,0l-0.5,0.8l-0.6-0.3l1.2-2.2l0.8,0.5c0.4,0.2,0.6,0.6,0.4,1.1C42.1,68.9,41.8,69,41.5,68.9z M43.9,69.4
					l0.1,0.1c0.3,0.2,0.5,0.5,0.3,0.8c-0.1,0.2-0.2,0.4-0.5,0.5c-0.2,0.1-0.5,0.1-0.7,0c-0.3-0.1-0.5-0.3-0.7-0.6l0.4-0.4
					c0.1,0.2,0.2,0.4,0.4,0.4c0.1,0.1,0.3,0,0.4-0.1c0.1-0.2-0.2-0.3-0.3-0.4c-0.3-0.2-0.6-0.4-0.4-0.9c0.2-0.5,0.6-0.7,1.1-0.5
					c0.2,0.1,0.5,0.3,0.7,0.5l-0.4,0.4c-0.1-0.1-0.2-0.2-0.3-0.3c-0.1,0-0.3,0-0.3,0.1C43.6,69.2,43.8,69.3,43.9,69.4z M47.8,70.6
					c-0.1,0.8-0.8,1.2-1.6,1.1c-0.8-0.1-1.2-0.8-1.1-1.6c0.1-0.7,0.9-1.1,1.6-1C47.4,69.2,47.9,69.9,47.8,70.6z M50.5,71.9l-1.2-1.5
					l0,0l0,1.5l-0.6,0l0-2.5l0.6,0l1.2,1.5l0,0l0-1.5l0.6,0l0,2.5L50.5,71.9z M54.9,71.2c-0.3,0.1-0.7,0.1-1-0.1
					c-0.3-0.2-0.5-0.4-0.6-0.8c-0.1-0.3-0.1-0.7,0.1-1c0.2-0.3,0.5-0.5,0.8-0.6c0.2-0.1,0.4-0.1,0.6,0l0.2,0.7
					c-0.2-0.1-0.4-0.2-0.6-0.1c-0.4,0.1-0.6,0.5-0.4,0.8c0.1,0.4,0.4,0.6,0.8,0.5c0.2-0.1,0.4-0.2,0.5-0.4l0.2,0.7
					C55.3,71,55.1,71.1,54.9,71.2z M57.7,70.1c-0.7,0.4-1.5,0.1-1.8-0.6c-0.3-0.7,0-1.4,0.7-1.7c0.6-0.3,1.5-0.1,1.8,0.5
					C58.7,69,58.4,69.8,57.7,70.1z M60.6,68.3c-0.2,0.2-0.5,0.3-0.8,0.3c-0.3,0-0.5-0.3-0.7-0.5l-0.8-1.1l0.5-0.4l0.8,1
					c0.2,0.3,0.4,0.5,0.8,0.3c0.3-0.2,0.1-0.5-0.1-0.8l-0.8-1l0.5-0.4l0.8,1.1c0.2,0.3,0.4,0.5,0.3,0.9
					C61.1,67.9,60.9,68.1,60.6,68.3z M63.5,65.5l-1.9-0.1l0,0l1.1,1l-0.4,0.5l-1.8-1.7l0.4-0.5l1.9,0.1l0,0l-1.1-1l0.4-0.5L64,65
					L63.5,65.5z M64.8,63.8l-1.6-1l-0.3,0.4l-0.5-0.3l0.9-1.4l0.5,0.3l-0.3,0.4l1.6,1L64.8,63.8z M65,61l-1.6,0.3l0.3-0.7l0.8-0.1
					l-0.4-0.7l0.3-0.7l0.8,1.4l1.1,0.5l-0.3,0.6L65,61z"/>
			</g>
		</g>
	</g>
	<line class="st12" x1="82.6" y1="30.9" x2="82.6" y2="74.8"/>
	
		<ellipse transform="matrix(0.5921 -0.8059 0.8059 0.5921 47.4434 117.9729)" class="st13" cx="140.3" cy="12.1" rx="1.7" ry="1.7"/>
</g>
</svg>
